<?xml version="1.0" encoding="UTF-8"?>
<svg width="56px" height="46px" viewBox="0 0 56 46" version="1.1" xmlns="http://www.w3.org/2000/svg" xmlns:xlink="http://www.w3.org/1999/xlink">
    <!-- Generator: Sketch 46.1 (44463) - http://www.bohemiancoding.com/sketch -->
    <title>plan_advanced</title>
    <desc>Created with Sketch.</desc>
    <defs></defs>
    <g id="Page-1" stroke="none" stroke-width="1" fill="none" fill-rule="evenodd">
        <g id="Pricing" transform="translate(-692.000000, -406.000000)" fill-rule="nonzero" fill="#4F545A">
            <g id="Group-4" transform="translate(534.000000, 290.000000)">
                <g id="Group-2" transform="translate(157.000000, 112.000000)">
                    <path d="M1.02560364,20.9768357 C1.00158034,21.1263146 1,21.1571457 1,21.1876035 L1,23.8613451 C1,26.8956137 3.18694907,29.4842753 6.14238081,30.0195919 L6.34748327,30.0567421 L6.34748327,48.17417 L4.90794839,48.17417 C4.40374224,48.17417 3.99503341,48.5828524 3.99503341,49.087085 C3.99503341,49.5911822 4.40382475,50 4.90794839,50 L52.3912976,50 C52.8954212,50 53.3042125,49.5911822 53.3042125,49.087085 C53.3042125,48.5828789 52.8955302,48.17417 52.3912976,48.17417 L50.9518717,48.17417 L50.9518717,30.0567448 L51.156971,30.0195925 C54.1122235,29.4842699 56.299137,26.8955768 56.299137,23.8613451 L56.299137,21.1877125 C56.2873076,21.0434911 56.2835234,21.019578 56.2789941,20.9982682 C56.2314492,20.8447074 56.2269799,20.8333186 56.2188601,20.8152293 C56.2162679,20.8090141 54.4681455,17.0081882 50.974493,9.4127516 L50.9516537,4.91291498 C50.9516537,4.40881782 50.5428623,4 50.0387387,4 L7.26039826,4 C6.75627462,4 6.34748327,4.40881782 6.34748327,4.91291498 L6.34748327,9.30855757 L1.08658429,20.7993912 C1.03926867,20.9229457 1.03579685,20.9357211 1.02560364,20.9768357 Z M45.3865885,20.2747975 L42.6819777,10.4760523 L49.4539854,10.4760523 L53.9615552,20.2747975 L45.3865885,20.2747975 Z M34.9059012,21.1040702 L33.928116,10.4760523 L40.7879555,10.4760523 L43.4925663,20.2747975 L38.809111,20.2747975 C38.3049726,20.2747975 37.896196,20.6835211 37.896196,21.1877125 C37.896196,21.6919038 38.3049726,22.1006274 38.809111,22.1006274 L43.7786674,22.1006274 L43.7786674,23.8613451 C43.7786674,26.3067529 41.7896159,28.2958044 39.3442081,28.2958044 C36.8988002,28.2958044 34.9097488,26.3067529 34.9097488,23.8613451 L34.9097499,21.1884757 C34.9096601,21.1590909 34.9083911,21.1310437 34.9059012,21.1040702 Z M49.1260417,5.82582997 L49.1260417,8.65011339 L8.17320426,8.65011339 L8.17320426,5.82582997 L49.1260417,5.82582997 Z M28.8059563,20.2747975 L24.3026884,20.2747975 L25.2042253,10.4760523 L32.0946947,10.4760523 L32.1155532,10.7027728 L33.0840278,21.2410042 L33.0840278,23.8613451 C33.0840278,26.3067342 31.0948861,28.2958044 28.6494595,28.2958044 C26.2040517,28.2958044 24.2150002,26.3067529 24.2150002,23.8613451 L24.2150002,22.1005185 L28.8060653,22.1005185 C29.3102715,22.1005185 29.7189803,21.6918361 29.7189803,21.1876035 C29.7189803,20.6834269 29.3102185,20.2747975 28.8059563,20.2747975 Z M21.4081031,22.1005185 L22.3890612,22.1005185 L22.3890612,23.8613451 C22.3890612,26.3067529 20.4000098,28.2958044 17.9546019,28.2958044 C15.5091941,28.2958044 13.5201426,26.3067529 13.5201426,23.8613451 L13.5291384,21.278786 L16.5107434,10.4760523 L23.37058,10.4760523 L22.4692727,20.2747975 L21.4081031,20.2747975 C20.9039647,20.2747975 20.4951882,20.6835211 20.4951882,21.1877125 C20.4951882,21.6918758 20.9039367,22.1005185 21.4081031,22.1005185 Z M2.82572099,23.8613451 L2.82572099,22.1005185 L6.2220266,22.1005185 C6.72616503,22.1005185 7.13494158,21.6917948 7.13494158,21.1876035 C7.13494158,20.6834401 6.72619306,20.2747975 6.2220266,20.2747975 L3.33757765,20.2747975 L7.84526222,10.4760523 L14.6167177,10.4760523 L14.5295053,10.7920411 L11.7274039,20.9446457 C11.7055775,21.02382 11.6945306,21.1054762 11.6945306,21.1876035 L11.6945306,23.8613451 C11.6945306,26.3067547 9.70569541,28.2958044 7.26050724,28.2958044 C4.81489846,28.2958044 2.82572099,26.30677 2.82572099,23.8613451 Z M18.8849734,40.6179674 C18.3808497,40.6179674 17.9720584,41.0267852 17.9720584,41.5308823 C17.9720584,42.0350472 18.3808085,42.4437973 18.8849734,42.4437973 L20.2969516,42.4437973 L20.2969516,48.17417 L12.8228817,48.17417 L12.8228817,34.8873767 L20.2969516,34.8873767 L20.2969516,40.6179674 L18.8849734,40.6179674 Z M22.1227816,48.17417 L22.1227816,33.9744617 C22.1227816,33.4704058 21.7139225,33.0615467 21.2098666,33.0615467 L11.9099667,33.0615467 C11.4058431,33.0615467 10.9970518,33.4703645 10.9970518,33.9744617 L10.9970518,48.17417 L8.17320426,48.17417 L8.17320426,30.0567351 L8.3783149,30.0195905 C10.0131388,29.7235314 11.4580972,28.7833915 12.4023028,27.4253167 L12.6072274,27.1305685 L12.8121524,27.4253165 C13.9771205,29.1009156 15.8820055,30.1216344 17.9546019,30.1216344 C20.0271522,30.1216344 21.9320531,29.1008503 23.0970515,27.4252075 L23.3019828,27.1304503 L23.5069053,27.4252137 C24.6718545,29.1008937 26.5767276,30.1216344 28.6493505,30.1216344 C30.7219255,30.1216344 32.6269269,29.1008269 33.7919091,27.4252075 L33.9968404,27.1304503 L34.2017628,27.4252137 C35.3667121,29.1008937 37.2715851,30.1216344 39.3442081,30.1216344 C41.4167583,30.1216344 43.3216592,29.1008503 44.4866577,27.4252075 L44.6915791,27.1304645 L44.896505,27.4252045 C45.8408645,28.7834539 47.2859537,29.7236441 48.9209106,30.0195868 L49.1260417,30.0567174 L49.1260417,48.17417 L22.1227816,48.17417 Z M50.0388477,28.2958044 C47.5934399,28.2958044 45.6043884,26.3067529 45.6043884,23.8613451 L45.6043884,22.1005185 L54.473307,22.1005185 L54.473307,22.3501046 L54.473307,23.8613333 C54.4734225,26.3067484 52.4843665,28.2958044 50.0388477,28.2958044 Z M45.9674589,33.2689524 C45.9254622,33.2378994 45.9254622,33.2378994 45.9201264,33.2338525 C45.8884971,33.2110313 45.8884971,33.2110313 45.8752287,33.2032126 C45.8239105,33.1726498 45.8239105,33.1726498 45.8184963,33.1697056 C45.7678329,33.1455577 45.7678329,33.1455577 45.7607642,33.1421492 C45.7031837,33.1190172 45.7031837,33.1190172 45.6943322,33.1158826 C45.648645,33.0999659 45.648645,33.0999659 45.636966,33.0970671 C45.57393,33.0811797 45.57393,33.0811797 45.5682752,33.0799865 C45.5057705,33.0707412 45.5057705,33.0707412 45.4962004,33.0692044 C45.4476856,33.0634292 45.4178324,33.0618737 45.3887343,33.0618737 L25.85998,33.0618737 C25.3559241,33.0618737 24.947065,33.4707327 24.947065,33.9747887 L24.947065,44.4370806 C24.947065,44.9410937 25.3557723,45.3496686 25.85998,45.3496686 L45.3887343,45.3496686 C45.8928315,45.3496686 46.3016493,44.9408773 46.3016493,44.4367537 L46.3016493,33.9750066 C46.3016493,33.9457223 46.3000973,33.915244 46.2971802,33.8849948 C46.2933642,33.8604921 46.2933642,33.8604921 46.2913945,33.8470605 C46.2862259,33.8093236 46.2862259,33.8093236 46.2835548,33.7945795 C46.2746245,33.7589921 46.2746245,33.7589921 46.2731375,33.7531702 C46.2644944,33.7176938 46.2644944,33.7176938 46.2618664,33.7085819 C46.250081,33.6754556 46.250081,33.6754556 46.2475822,33.6685907 C46.2346447,33.6320761 46.2346447,33.6320761 46.2321042,33.6258193 C46.2173033,33.5942094 46.2173033,33.5942094 46.2137174,33.5866514 C46.1992471,33.5553258 46.1992471,33.5553258 46.1933248,33.5436557 C46.169513,33.5039642 46.169513,33.5039642 46.1663755,33.4985952 C46.1440606,33.4623559 46.1440606,33.4623559 46.1349183,33.4502073 C46.1224655,33.4335662 46.1136776,33.4217207 46.1085546,33.4146708 C46.0807425,33.3791426 46.0715326,33.3690277 46.0428336,33.3389314 C45.9944086,33.2919117 45.9842008,33.2826183 45.9674589,33.2689524 Z M26.772786,34.8873767 L36.6091079,34.8873767 L35.6836865,35.8127981 C35.3272427,36.1692419 35.3272427,36.7473036 35.6836441,37.1038761 C35.8573965,37.2775451 36.0884998,37.3712733 36.3291377,37.3712733 C36.5699221,37.3712733 36.8008046,37.2775939 36.9745889,37.1038095 L39.1179197,34.9604788 L39.2944037,34.8873767 L43.1849055,34.8873767 L34.6216683,43.4508432 L34.4451819,43.5239477 L26.772786,43.5239477 L26.772786,34.8873767 Z M37.1305939,43.5239477 L44.4759283,36.1784899 L44.4759283,43.5239477 L37.1305939,43.5239477 Z" id="plan_advanced"></path>
                </g>
            </g>
        </g>
    </g>
</svg>
