<?xml version="1.0" encoding="UTF-8"?>
<svg width="53px" height="46px" viewBox="0 0 53 46" version="1.1" xmlns="http://www.w3.org/2000/svg" xmlns:xlink="http://www.w3.org/1999/xlink">
    <!-- Generator: Sketch 46.1 (44463) - http://www.bohemiancoding.com/sketch -->
    <title>plan_beginner</title>
    <desc>Created with Sketch.</desc>
    <defs></defs>
    <g id="Page-1" stroke="none" stroke-width="1" fill="none" fill-rule="evenodd">
        <g id="Pricing" transform="translate(-312.000000, -406.000000)" fill-rule="nonzero" fill="#646E7E">
            <g id="Group-4" transform="translate(153.000000, 290.000000)">
                <g id="Group-2" transform="translate(157.000000, 112.000000)">
                    <path d="M54.8079694,18.9258141 C54.8079694,18.7647677 54.7703669,18.6233108 54.6877763,18.4877627 L46.7065887,4.45490505 C46.5490935,4.17741356 46.2485341,4 45.9336836,4 L10.8633228,4 C10.5416918,4 10.2467706,4.17203736 10.0903545,4.45501645 L2.12226764,18.4840722 C2.04158018,18.6293096 2,18.7786203 2,18.9258141 C2,21.8314082 3.72838302,24.4196108 6.35264035,25.5776838 L6.60442374,25.6887947 C6.60442374,35.6990473 6.60442374,43.2067368 6.60442374,48.2118631 C6.60442374,48.2134308 4.51843572,48.2134308 4.51701392,48.2134308 C4.00852424,48.2243937 3.62372932,48.6250766 3.62372932,49.1067154 C3.62372932,49.5883542 4.02667216,50 4.51701392,50 L52.2799926,50 C52.7703343,50 53.1732771,49.5970572 53.1732771,49.1067154 C53.1732771,48.6163736 52.7984749,48.2494613 52.2799926,48.2494613 C52.2799926,48.2494613 50.1925827,48.2444887 50.1925827,48.2494613 C50.1925827,43.3336807 50.1925827,35.9600097 50.1925827,26.1284484 C50.1925827,26.1007535 50.164328,25.9721737 50.1078186,25.7427088 L50.4339791,25.599356 C53.0692631,24.4411062 54.8079694,21.8417987 54.8079694,18.9258141 Z M45.4119685,5.79753211 L52.1299239,17.6159388 L4.67867562,17.6159388 L11.3848245,5.79753211 L45.4119685,5.79753211 Z M40.1774416,19.8869739 C39.7208082,22.4825745 37.4520964,24.4019823 34.7844004,24.4019823 C32.1167045,24.4019823 29.8479927,22.4825745 29.3913593,19.8869739 L29.3042005,19.3915451 L40.2646004,19.3915451 L40.1774416,19.8869739 Z M27.427573,19.8869739 C26.9709396,22.4825745 24.7022278,24.4019823 22.0345319,24.4019823 C19.3689387,24.4019823 17.099619,22.4850415 16.6308602,19.8888392 L16.541071,19.3915451 L27.5147318,19.3915451 L27.427573,19.8869739 Z M14.7648632,19.3915451 L14.6777044,19.8869739 C14.2214202,22.4805893 11.943298,24.4019823 9.27556053,24.4019782 C6.61095802,24.4137166 4.33812115,22.4872841 3.88065917,19.8869739 L3.79350039,19.3915451 L14.7648632,19.3915451 Z M15.6922934,48.2134308 L15.6922934,33.5941926 C15.6922934,32.3270544 16.7179261,31.2972693 17.9892167,31.2972693 L21.8152736,31.2972693 C23.0824118,31.2972693 24.1121969,32.322902 24.1121969,33.5941926 L24.1121969,48.2134308 L15.6922934,48.2134308 Z M25.8878031,48.2134308 L25.8878031,33.5941926 C25.8878031,31.3458397 24.0557426,29.5107001 21.8043107,29.5107001 L17.9782538,29.5107001 C15.7299009,29.5107001 13.8947613,31.3427606 13.8947613,33.5941926 L13.8947613,48.2243937 L8.39099293,48.2243937 L8.39099293,26.1573139 L8.84334311,26.1896246 C8.95789825,26.1978071 9.05350716,26.1995144 9.27370035,26.1995144 C11.7183733,26.1995144 13.961852,24.9791296 15.303927,22.98732 L15.6541161,22.4675949 L16.0043052,22.98732 C17.3463802,24.9791296 19.5898589,26.1995144 22.0345319,26.1995144 C24.4754419,26.1995144 26.7096374,24.9826507 28.0656265,22.9860368 L28.41633,22.4696466 L28.7651367,22.98732 C30.1064303,24.9779699 32.3492198,26.1995144 34.7844004,26.1995144 C37.2265328,26.1995144 39.4599712,24.981531 40.8036642,22.98732 L41.1538533,22.4675949 L41.5040424,22.98732 C42.8461173,24.9791296 45.0895961,26.1995144 47.534269,26.1995144 C47.5913256,26.1995144 47.6375212,26.198243 47.74338,26.1943223 C47.8595202,26.1900208 47.9129044,26.1885515 47.9837485,26.1885515 L48.4060135,26.1885515 L48.4060135,48.2134308 L25.8878031,48.2134308 Z M47.534269,24.4129452 C44.8665731,24.4129452 42.5978613,22.4935375 42.1412279,19.8979368 L42.0540691,19.402508 L53.0281476,19.402508 L52.9378795,19.90014 C52.4681626,22.4896048 50.1954448,24.4129452 47.534269,24.4129452 Z M39.6957858,29.5107001 L32.4054482,29.5107001 C30.6434084,29.5107001 29.2099517,30.9441568 29.2099517,32.7061966 L29.2099517,38.2972825 C29.2099517,40.0593223 30.6434084,41.492779 32.4054482,41.492779 L39.6957858,41.492779 C41.4578255,41.492779 42.8912822,40.0593223 42.8912822,38.2972825 L42.8912822,32.7061966 C42.8912822,30.9441568 41.4578255,29.5107001 39.6957858,29.5107001 Z M41.104713,38.2972825 C41.104713,39.0756003 40.4692527,39.7062098 39.6957858,39.7062098 L32.4054482,39.7062098 C31.6271304,39.7062098 30.9965209,39.0707494 30.9965209,38.2972825 L30.9965209,32.7061966 C30.9965209,31.9278788 31.6319813,31.2972693 32.4054482,31.2972693 L39.6957858,31.2972693 C40.4741035,31.2972693 41.104713,31.9327297 41.104713,32.7061966 L41.104713,38.2972825 Z" id="plan_beginner"></path>
                </g>
            </g>
        </g>
    </g>
</svg>