<?xml version="1.0" encoding="UTF-8"?>
<svg width="16px" height="16px" viewBox="0 0 16 16" version="1.1" xmlns="http://www.w3.org/2000/svg" xmlns:xlink="http://www.w3.org/1999/xlink">
    <!-- Generator: Sketch 46.1 (44463) - http://www.bohemiancoding.com/sketch -->
    <title>Page 1</title>
    <desc>Created with Sketch.</desc>
    <defs></defs>
    <g id="Page-1" stroke="none" stroke-width="1" fill="none" fill-rule="evenodd">
        <g id="Pricing-2" transform="translate(-888.000000, -876.000000)" fill="#2EB43C">
            <g id="Group-15" transform="translate(153.000000, 293.000000)">
                <g id="Group-9" transform="translate(735.000000, 583.000000)">
                    <path d="M0,8 C0,6.91666133 0.211108992,5.88056107 0.633333333,4.8916672 C1.05555776,3.90277333 1.62360747,3.051392 2.33749973,2.33749973 C3.051392,1.62360747 3.90277333,1.0555584 4.8916672,0.633333333 C5.88056107,0.211108267 6.91666133,0 8,0 C9.08333867,0 10.1194389,0.211108267 11.1083328,0.633333333 C12.0972267,1.0555584 12.948608,1.62360747 13.6625003,2.33749973 C14.3763925,3.051392 14.9444416,3.90277333 15.3666667,4.8916672 C15.7888917,5.88056107 16,6.91666133 16,8 C16,9.08333867 15.7888917,10.1194389 15.3666667,11.1083328 C14.9444416,12.0972267 14.3763925,12.948608 13.6625003,13.6625003 C12.948608,14.3763925 12.0972267,14.9444422 11.1083328,15.3666667 C10.1194389,15.788891 9.08333867,16 8,16 C6.91666133,16 5.88056107,15.788891 4.8916672,15.3666667 C3.90277333,14.9444422 3.051392,14.3763925 2.33749973,13.6625003 C1.62360747,12.948608 1.05555776,12.0972267 0.633333333,11.1083328 C0.211108992,10.1194389 0,9.08333867 0,8 Z M3.0166656,8.53333333 C3.0166656,8.7833344 3.1027776,8.9972224 3.27499947,9.17499947 L5.8916672,11.7833344 C6.05277867,11.9611115 6.26666453,12.0500011 6.53333333,12.0500011 C6.7833344,12.0500011 6.9972224,11.9611115 7.17499947,11.7833344 L12.5499989,6.4083328 C12.7277781,6.23055573 12.8166656,6.01666773 12.8166656,5.76666667 C12.8166656,5.5166656 12.7277781,5.30555733 12.5499989,5.13333333 C12.3722219,4.96110933 12.1583339,4.87499947 11.9083328,4.87499947 C11.6583317,4.87499947 11.4444459,4.96110933 11.2666667,5.13333333 L6.53333333,9.86666667 L4.55833387,7.9 C4.38610987,7.7222208 4.1736128,7.63333333 3.92083413,7.63333333 C3.66805333,7.63333333 3.45277867,7.7222208 3.27499947,7.9 C3.1027776,8.072224 3.0166656,8.28333227 3.0166656,8.53333333 Z" id="Page-1"></path>
                </g>
            </g>
        </g>
    </g>
</svg>