<?xml version="1.0" encoding="UTF-8"?>
<svg width="59px" height="50px" viewBox="0 0 59 50" version="1.1" xmlns="http://www.w3.org/2000/svg" xmlns:xlink="http://www.w3.org/1999/xlink">
    <!-- Generator: Sketch 46.1 (44463) - http://www.bohemiancoding.com/sketch -->
    <title>plan_pro</title>
    <desc>Created with Sketch.</desc>
    <defs></defs>
    <g id="Page-1" stroke="none" stroke-width="1" fill="none" fill-rule="evenodd">
        <g id="Pricing" transform="translate(-1070.000000, -402.000000)" fill-rule="nonzero" fill="#29AB58">
            <g id="Group-4" transform="translate(913.000000, 290.000000)">
                <g id="Group-2" transform="translate(157.000000, 112.000000)">
                    <path d="M58.0200501,19.4862155 L58.0200501,10.2130326 C58.0200501,9.5566416 57.4859649,9.02255639 56.8295739,9.02255639 L56.0150376,9.02255639 L56.0150376,5.95238095 C56.0150376,4.32857143 54.693985,3.0075188 53.0701754,3.0075188 L42.9824561,3.0075188 L42.9824561,2.94486216 C42.9824561,1.32105263 41.6614035,0 40.037594,0 L17.9824561,0 C16.3586466,0 15.037594,1.32105263 15.037594,2.94486216 L15.037594,3.0075188 L4.94987469,3.0075188 C3.32606516,3.0075188 2.00501253,4.32857143 2.00501253,5.95238095 L2.00501253,9.02255639 L1.19047619,9.02255639 C0.534085213,9.02255639 0,9.5566416 0,10.2130326 L0,19.4862155 C0,21.0370927 0.798245614,22.4045113 2.00501253,23.2010025 L2.00501253,48.1203008 L0.939849624,48.1203008 C0.420802005,48.1203008 0,48.5411028 0,49.0601504 C0,49.579198 0.420802005,50 0.939849624,50 L57.0802005,50 C57.5992481,50 58.0200501,49.579198 58.0200501,49.0601504 C58.0200501,48.5411028 57.5992481,48.1203008 57.0802005,48.1203008 L56.0150376,48.1203008 L56.0150376,23.2010025 C57.2218045,22.4045113 58.0200501,21.0370927 58.0200501,19.4862155 Z M16.9172932,2.94486216 C16.9172932,2.3575188 17.3951128,1.87969925 17.9824561,1.87969925 L40.037594,1.87969925 C40.6249373,1.87969925 41.1027569,2.3575188 41.1027569,2.94486216 L41.1027569,3.9424812 C41.1027569,3.94411028 41.1025063,3.94561404 41.1025063,3.94736842 C41.1025063,3.9481203 41.1026316,3.94899749 41.1026316,3.94987469 C41.1012531,4.53596491 40.6240602,5.01253133 40.037594,5.01253133 L17.9824561,5.01253133 C17.3951128,5.01253133 16.9172932,4.53471178 16.9172932,3.94736842 L16.9172932,2.94486216 Z M3.88471178,5.95238095 C3.88471178,5.36503759 4.36253133,4.88721805 4.94987469,4.88721805 L15.1922306,4.88721805 C15.5854637,6.05137845 16.687218,6.89223058 17.9824561,6.89223058 L40.037594,6.89223058 C41.3328321,6.89223058 42.4345865,6.05137845 42.8278195,4.88721805 L53.0701754,4.88721805 C53.6575188,4.88721805 54.1353383,5.36503759 54.1353383,5.95238095 L54.1353383,9.02255639 L3.88471178,9.02255639 L3.88471178,5.95238095 Z M49.122807,10.9022556 L49.122807,19.4862155 C49.122807,20.9027569 47.9704261,22.0551378 46.5538847,22.0551378 C45.1373434,22.0551378 43.9849624,20.9027569 43.9849624,19.4862155 L43.9849624,10.9022556 L49.122807,10.9022556 Z M42.1052632,10.9022556 L42.1052632,19.4862155 C42.1052632,20.9027569 40.9528822,22.0551378 39.5363409,22.0551378 C38.1197995,22.0551378 36.9674185,20.9027569 36.9674185,19.4862155 L36.9674185,10.9022556 L42.1052632,10.9022556 Z M35.0877193,10.9022556 L35.0877193,19.4862155 C35.0877193,20.9027569 33.9353383,22.0551378 32.518797,22.0551378 C31.1022556,22.0551378 29.9498747,20.9027569 29.9498747,19.4862155 L29.9498747,10.9022556 L35.0877193,10.9022556 Z M28.0701754,10.9022556 L28.0701754,19.4862155 C28.0701754,20.9027569 26.9177945,22.0551378 25.5012531,22.0551378 C24.0847118,22.0551378 22.9323308,20.9027569 22.9323308,19.4862155 L22.9323308,10.9022556 L28.0701754,10.9022556 Z M21.0526316,10.9022556 L21.0526316,19.4862155 C21.0526316,20.9027569 19.9002506,22.0551378 18.4837093,22.0551378 C17.0671679,22.0551378 15.914787,20.9027569 15.914787,19.4862155 L15.914787,10.9022556 L21.0526316,10.9022556 Z M14.0350877,10.9022556 L14.0350877,19.4862155 C14.0350877,20.9027569 12.8827068,22.0551378 11.4661654,22.0551378 C10.0496241,22.0551378 8.89724311,20.9027569 8.89724311,19.4862155 L8.89724311,10.9022556 L14.0350877,10.9022556 Z M1.87969925,19.4862155 L1.87969925,10.9022556 L7.01754386,10.9022556 L7.01754386,19.4862155 C7.01754386,20.9027569 5.86516291,22.0551378 4.44862155,22.0551378 C3.0320802,22.0551378 1.87969925,20.9027569 1.87969925,19.4862155 Z M18.0451128,48.1203008 L7.89473684,48.1203008 L7.89473684,45.9899749 L18.0451128,45.9899749 L18.0451128,48.1203008 Z M18.0451128,44.1102757 L7.89473684,44.1102757 L7.89473684,27.9448622 L18.0451128,27.9448622 L18.0451128,44.1102757 Z M54.1353383,48.1203008 L19.924812,48.1203008 L19.924812,27.0050125 C19.924812,26.4859649 19.50401,26.0651629 18.9849624,26.0651629 L6.95488722,26.0651629 C6.4358396,26.0651629 6.01503759,26.4859649 6.01503759,27.0050125 L6.01503759,48.1203008 L3.88471178,48.1203008 L3.88471178,23.8978697 C4.06954887,23.9214286 4.2575188,23.9348371 4.44862155,23.9348371 C5.87318296,23.9348371 7.14260652,23.2609023 7.95739348,22.2160401 C8.77218045,23.2609023 10.041604,23.9348371 11.4661654,23.9348371 C12.8907268,23.9348371 14.1601504,23.2609023 14.9749373,22.2160401 C15.7897243,23.2609023 17.0591479,23.9348371 18.4837093,23.9348371 C19.9082707,23.9348371 21.1776942,23.2609023 21.9924812,22.2160401 C22.8072682,23.2609023 24.0766917,23.9348371 25.5012531,23.9348371 C26.9258145,23.9348371 28.1952381,23.2609023 29.0100251,22.2160401 C29.824812,23.2609023 31.0942356,23.9348371 32.518797,23.9348371 C33.9433584,23.9348371 35.212782,23.2609023 36.0275689,22.2160401 C36.8423559,23.2609023 38.1117794,23.9348371 39.5363409,23.9348371 C40.9609023,23.9348371 42.2303258,23.2609023 43.0451128,22.2160401 C43.8598997,23.2609023 45.1293233,23.9348371 46.5538847,23.9348371 C47.9784461,23.9348371 49.2478697,23.2609023 50.0626566,22.2160401 C50.8774436,23.2609023 52.1468672,23.9348371 53.5714286,23.9348371 C53.7625313,23.9348371 53.9505013,23.9214286 54.1353383,23.8978697 L54.1353383,48.1203008 Z M53.5714286,22.0551378 C52.1548872,22.0551378 51.0025063,20.9027569 51.0025063,19.4862155 L51.0025063,10.9022556 L56.1403509,10.9022556 L56.1403509,19.4862155 C56.1403509,20.9027569 54.9879699,22.0551378 53.5714286,22.0551378 Z M51.0651629,26.0651629 L22.9949875,26.0651629 C22.4759398,26.0651629 22.0551378,26.4859649 22.0551378,27.0050125 L22.0551378,45.0501253 C22.0551378,45.5691729 22.4759398,45.9899749 22.9949875,45.9899749 L51.0651629,45.9899749 C51.5842105,45.9899749 52.0050125,45.5691729 52.0050125,45.0501253 L52.0050125,27.0050125 C52.0050125,26.4859649 51.5842105,26.0651629 51.0651629,26.0651629 Z M50.1253133,44.1102757 L43.9849624,44.1102757 L43.9849624,40.9774436 L47.0551378,40.9774436 C47.5741855,40.9774436 47.9949875,40.5566416 47.9949875,40.037594 C47.9949875,39.5185464 47.5741855,39.0977444 47.0551378,39.0977444 L39.0350877,39.0977444 C38.5160401,39.0977444 38.0952381,39.5185464 38.0952381,40.037594 C38.0952381,40.5566416 38.5160401,40.9774436 39.0350877,40.9774436 L42.1052632,40.9774436 L42.1052632,44.1102757 L31.9548872,44.1102757 L31.9548872,40.9774436 L35.0250627,40.9774436 C35.5441103,40.9774436 35.9649123,40.5566416 35.9649123,40.037594 C35.9649123,39.5185464 35.5441103,39.0977444 35.0250627,39.0977444 L27.0050125,39.0977444 C26.4859649,39.0977444 26.0651629,39.5185464 26.0651629,40.037594 C26.0651629,40.5566416 26.4859649,40.9774436 27.0050125,40.9774436 L30.075188,40.9774436 L30.075188,44.1102757 L23.9348371,44.1102757 L23.9348371,27.9448622 L30.075188,27.9448622 L30.075188,29.1865915 C28.3510025,29.6095238 27.0676692,31.1672932 27.0676692,33.0200501 C27.0676692,33.5390977 27.4884712,33.9598997 28.0075188,33.9598997 L30.075188,33.9598997 L30.075188,34.0225564 C30.075188,34.541604 30.49599,34.962406 31.0150376,34.962406 C31.5340852,34.962406 31.9548872,34.541604 31.9548872,34.0225564 L31.9548872,33.9598997 L34.0225564,33.9598997 C34.541604,33.9598997 34.962406,33.5390977 34.962406,33.0200501 C34.962406,31.1672932 33.6790727,29.6095238 31.9548872,29.1865915 L31.9548872,27.9448622 L42.1052632,27.9448622 L42.1052632,29.1865915 C40.3810777,29.6095238 39.0977444,31.1672932 39.0977444,33.0200501 C39.0977444,33.5390977 39.5185464,33.9598997 40.037594,33.9598997 L42.1052632,33.9598997 L42.1052632,34.0225564 C42.1052632,34.541604 42.5260652,34.962406 43.0451128,34.962406 C43.5641604,34.962406 43.9849624,34.541604 43.9849624,34.0225564 L43.9849624,33.9598997 L46.0526316,33.9598997 C46.5716792,33.9598997 46.9924812,33.5390977 46.9924812,33.0200501 C46.9924812,31.1672932 45.7091479,29.6095238 43.9849624,29.1865915 L43.9849624,27.9448622 L50.1253133,27.9448622 L50.1253133,44.1102757 Z M31.0150376,30.952381 C31.8170426,30.952381 32.5136591,31.4112782 32.8565163,32.0802005 L29.1735589,32.0802005 C29.5162907,31.4112782 30.2130326,30.952381 31.0150376,30.952381 Z M43.0451128,30.952381 C43.8471178,30.952381 44.5437343,31.4112782 44.8865915,32.0802005 L41.2036341,32.0802005 C41.5463659,31.4112782 42.2431078,30.952381 43.0451128,30.952381 Z M15.9774436,38.9724311 C15.458396,38.9724311 15.037594,38.5516291 15.037594,38.0325815 L15.037594,36.0275689 C15.037594,35.5085213 15.458396,35.0877193 15.9774436,35.0877193 C16.4964912,35.0877193 16.9172932,35.5085213 16.9172932,36.0275689 L16.9172932,38.0325815 C16.9172932,38.5516291 16.4964912,38.9724311 15.9774436,38.9724311 Z" id="plan_pro"></path>
                </g>
            </g>
        </g>
    </g>
</svg>
